<svg xmlns="http://www.w3.org/2000/svg" width="43.136" height="74.208" viewBox="0 0 43.136 74.208">
  <g id="female-symbol" transform="translate(0)">
    <path id="Caminho_1" data-name="Caminho 1" d="M135.169,53.189H125.117V43.136a2.91,2.91,0,0,0-.033-.311,21.568,21.568,0,1,0-7.248,0c-.009.1-.032.2-.032.311V53.189H107.752a3.656,3.656,0,0,0,0,7.311h10.053V70.553a3.656,3.656,0,0,0,7.312,0V60.5h10.051a3.656,3.656,0,1,0,0-7.311ZM107.2,21.568A14.257,14.257,0,1,1,121.46,35.825,14.274,14.274,0,0,1,107.2,21.568Z" transform="translate(-99.892 0)" fill="#fff"/>
  </g>
</svg>
